<svg width="46" height="42" viewBox="0 0 46 42" fill="none" xmlns="http://www.w3.org/2000/svg" xmlns:xlink="http://www.w3.org/1999/xlink">
<path d="M10.958,-1C8.117,-1 5.52,0.605 4.25,3.146L0.5,10.646L0.5,32C0.5,36.971 4.529,41 9.5,41L36.5,41C41.471,41 45.5,36.971 45.5,32L45.5,10.646L41.75,3.146C40.48,0.605 37.883,-1 35.042,-1L10.958,-1ZM6.933,4.488C7.696,2.963 9.254,2 10.958,2L21.5,2L21.5,9.5L4.427,9.5L6.933,4.488ZM24.5,9.5L24.5,2L35.042,2C36.746,2 38.304,2.963 39.067,4.488L41.573,9.5L24.5,9.5ZM13.25,30.5C14.078,30.5 14.75,31.172 14.75,32C14.75,32.828 14.078,33.5 13.25,33.5L9.5,33.5C8.672,33.5 8,32.828 8,32C8,31.172 8.672,30.5 9.5,30.5L13.25,30.5Z" clip-rule="evenodd" fill-rule="evenodd" fill="#124CE2"/>
</svg>
