<svg width="32" height="32" viewBox="0 0 32 32" fill="none" xmlns="http://www.w3.org/2000/svg" xmlns:xlink="http://www.w3.org/1999/xlink">
<path d="M14.771,6.375C14.219,6.375 13.771,6.823 13.771,7.375C13.771,7.927 14.219,8.375 14.771,8.375L14.771,6.375ZM17.229,8.375C17.781,8.375 18.229,7.927 18.229,7.375C18.229,6.823 17.781,6.375 17.229,6.375L17.229,8.375ZM22.16,6.375C21.608,6.375 21.16,6.823 21.16,7.375C21.16,7.927 21.608,8.375 22.16,8.375L22.16,6.375ZM24.618,8.375C25.171,8.375 25.618,7.927 25.618,7.375C25.618,6.823 25.171,6.375 24.618,6.375L24.618,8.375ZM7.396,6.375C6.844,6.375 6.396,6.823 6.396,7.375C6.396,7.927 6.844,8.375 7.396,8.375L7.396,6.375ZM9.854,8.375C10.406,8.375 10.854,7.927 10.854,7.375C10.854,6.823 10.406,6.375 9.854,6.375L9.854,8.375ZM14.771,13.75C14.219,13.75 13.771,14.198 13.771,14.75C13.771,15.302 14.219,15.75 14.771,15.75L14.771,13.75ZM17.229,15.75C17.781,15.75 18.229,15.302 18.229,14.75C18.229,14.198 17.781,13.75 17.229,13.75L17.229,15.75ZM22.16,13.75C21.608,13.75 21.16,14.198 21.16,14.75C21.16,15.302 21.608,15.75 22.16,15.75L22.16,13.75ZM24.618,15.75C25.171,15.75 25.618,15.302 25.618,14.75C25.618,14.198 25.171,13.75 24.618,13.75L24.618,15.75ZM7.396,13.75C6.844,13.75 6.396,14.198 6.396,14.75C6.396,15.302 6.844,15.75 7.396,15.75L7.396,13.75ZM9.854,15.75C10.406,15.75 10.854,15.302 10.854,14.75C10.854,14.198 10.406,13.75 9.854,13.75L9.854,15.75ZM1.25,19.917C0.698,19.917 0.25,20.364 0.25,20.917C0.25,21.469 0.698,21.917 1.25,21.917L1.25,19.917ZM30.764,21.917C31.316,21.917 31.764,21.469 31.764,20.917C31.764,20.364 31.316,19.917 30.764,19.917L30.764,21.917ZM24.389,24.604C24.389,24.052 23.941,23.604 23.389,23.604C22.837,23.604 22.389,24.052 22.389,24.604L24.389,24.604ZM22.389,30.75C22.389,31.302 22.837,31.75 23.389,31.75C23.941,31.75 24.389,31.302 24.389,30.75L22.389,30.75ZM9.625,24.604C9.625,24.052 9.177,23.604 8.625,23.604C8.073,23.604 7.625,24.052 7.625,24.604L9.625,24.604ZM7.625,30.75C7.625,31.302 8.073,31.75 8.625,31.75C9.177,31.75 9.625,31.302 9.625,30.75L7.625,30.75ZM14.771,8.375L17.229,8.375L17.229,6.375L14.771,6.375L14.771,8.375ZM22.16,8.375L24.618,8.375L24.618,6.375L22.16,6.375L22.16,8.375ZM7.396,8.375L9.854,8.375L9.854,6.375L7.396,6.375L7.396,8.375ZM14.771,15.75L17.229,15.75L17.229,13.75L14.771,13.75L14.771,15.75ZM22.16,15.75L24.618,15.75L24.618,13.75L22.16,13.75L22.16,15.75ZM7.396,15.75L9.854,15.75L9.854,13.75L7.396,13.75L7.396,15.75ZM1.25,21.917L30.764,21.917L30.764,19.917L1.25,19.917L1.25,21.917ZM6.181,2.25L25.833,2.25L25.833,0.25L6.181,0.25L6.181,2.25ZM25.833,2.25C28.004,2.25 29.764,4.01 29.764,6.181L31.764,6.181C31.764,2.905 29.109,0.25 25.833,0.25L25.833,2.25ZM29.764,6.181L29.764,23.361L31.764,23.361L31.764,6.181L29.764,6.181ZM29.764,23.361C29.764,25.532 28.004,27.292 25.833,27.292L25.833,29.292C29.109,29.292 31.764,26.636 31.764,23.361L29.764,23.361ZM25.833,27.292L6.181,27.292L6.181,29.292L25.833,29.292L25.833,27.292ZM6.181,27.292C4.01,27.292 2.25,25.532 2.25,23.361L0.25,23.361C0.25,26.636 2.905,29.292 6.181,29.292L6.181,27.292ZM2.25,23.361L2.25,6.181L0.25,6.181L0.25,23.361L2.25,23.361ZM2.25,6.181C2.25,4.01 4.01,2.25 6.181,2.25L6.181,0.25C2.905,0.25 0.25,2.905 0.25,6.181L2.25,6.181ZM22.389,24.604L22.389,30.75L24.389,30.75L24.389,24.604L22.389,24.604ZM7.625,24.604L7.625,30.75L9.625,30.75L9.625,24.604L7.625,24.604Z" fill="#8391A1"/>
</svg>
