<svg width="46" height="46" viewBox="0 0 46 46" fill="none" xmlns="http://www.w3.org/2000/svg" xmlns:xlink="http://www.w3.org/1999/xlink">
<path d="M2.563,4.046C3.745,1.288 6.456,-0.5 9.456,-0.5L28.544,-0.5C31.544,-0.5 34.255,1.288 35.437,4.046L38.5,11.192L38.5,19.571C36.676,18.723 34.644,18.25 32.5,18.25C24.63,18.25 18.25,24.63 18.25,32.5C18.25,34.644 18.723,36.676 19.571,38.5L8.5,38.5C3.529,38.5 -0.5,34.471 -0.5,29.5L-0.5,11.192L2.563,4.046ZM9.456,2.5C7.656,2.5 6.029,3.573 5.32,5.227L3.275,10L17.5,10L17.5,2.5L9.456,2.5ZM20.5,2.5L20.5,10L34.725,10L32.68,5.227C31.971,3.573 30.344,2.5 28.544,2.5L20.5,2.5ZM9.25,28C10.078,28 10.75,28.672 10.75,29.5C10.75,30.328 10.078,31 9.25,31L5.5,31C4.672,31 4,30.328 4,29.5C4,28.672 4.672,28 5.5,28L9.25,28Z" clip-rule="evenodd" fill-rule="evenodd" fill="#12C559"/>
<path d="M32.5,20.5C25.873,20.5 20.5,25.873 20.5,32.5C20.5,39.127 25.873,44.5 32.5,44.5C39.127,44.5 44.5,39.127 44.5,32.5C44.5,25.873 39.127,20.5 32.5,20.5ZM30.561,32.939C29.975,32.354 29.025,32.354 28.439,32.939C27.854,33.525 27.854,34.475 28.439,35.061L31.439,38.061C32.025,38.646 32.975,38.646 33.561,38.061L36.561,35.061C37.146,34.475 37.146,33.525 36.561,32.939C35.975,32.354 35.025,32.354 34.439,32.939L34,33.379L34,28C34,27.172 33.328,26.5 32.5,26.5C31.672,26.5 31,27.172 31,28L31,33.379L30.561,32.939Z" clip-rule="evenodd" fill-rule="evenodd" fill="#12C559"/>
</svg>
