<svg width="46" height="46" viewBox="0 0 46 46" fill="none" xmlns="http://www.w3.org/2000/svg" xmlns:xlink="http://www.w3.org/1999/xlink">
<path d="M32.917,-0.5C26.703,-0.5 21.667,4.537 21.667,10.75C21.667,16.963 26.703,22 32.917,22C39.13,22 44.167,16.963 44.167,10.75C44.167,4.537 39.13,-0.5 32.917,-0.5ZM34.417,5.875C34.417,5.047 33.745,4.375 32.917,4.375C32.088,4.375 31.417,5.047 31.417,5.875L31.417,10.75C31.417,11.578 32.088,12.25 32.917,12.25L37.792,12.25C38.62,12.25 39.292,11.578 39.292,10.75C39.292,9.922 38.62,9.25 37.792,9.25L34.417,9.25L34.417,5.875Z" clip-rule="evenodd" fill-rule="evenodd" fill="#F57B23"/>
<path d="M32.917,23.5C37.787,23.5 42.019,20.769 44.167,16.755L44.167,35.5C44.167,38.814 41.48,41.5 38.167,41.5L37.978,41.5C38.101,41.021 38.167,40.518 38.167,40C38.167,36.686 35.48,34 32.167,34C28.853,34 26.167,36.686 26.167,40C26.167,40.518 26.232,41.021 26.356,41.5L16.978,41.5C17.101,41.021 17.167,40.518 17.167,40C17.167,36.686 14.48,34 11.167,34C7.853,34 5.167,36.686 5.167,40C5.167,40.518 5.232,41.021 5.356,41.5L5.167,41.5C1.853,41.5 -0.833,38.814 -0.833,35.5L-0.833,25.692C-0.833,24.442 -0.443,23.222 0.284,22.205L5.6,14.763C6.726,13.186 8.545,12.25 10.482,12.25L14.167,12.25L14.167,29.5C14.167,30.055 14.468,30.54 14.917,30.799L14.917,11.5C14.917,9.015 16.931,7 19.417,7L20.727,7C20.363,8.186 20.167,9.445 20.167,10.75C20.167,17.792 25.875,23.5 32.917,23.5ZM9.667,18.25L6.796,18.25L2.725,23.948C2.362,24.457 2.167,25.067 2.167,25.692L2.167,30.25L9.667,30.25C10.495,30.25 11.167,29.578 11.167,28.75L11.167,19.75C11.167,18.922 10.495,18.25 9.667,18.25Z" clip-rule="evenodd" fill-rule="evenodd" fill="#F57B23"/>
<path d="M15.667,40C15.667,37.515 13.652,35.5 11.167,35.5C8.681,35.5 6.667,37.515 6.667,40C6.667,42.485 8.681,44.5 11.167,44.5C13.652,44.5 15.667,42.485 15.667,40Z" fill="#F57B23"/>
<circle cx="32.167" cy="40" r="4.5" fill="#F57B23"/>
</svg>
