<svg xmlns="http://www.w3.org/2000/svg" xmlns:xlink="http://www.w3.org/1999/xlink" version="1.1" x="0px" y="0px" viewBox="0 0 100 125" enable-background="new 0 0 100 100" xml:space="preserve"><g><path d="M33.99,59.815H18.042v-6.645H33.99V59.815z M33.99,49.854H18.042V43.21H33.99V49.854z M33.99,33.894H18.042v-6.645H33.99   V33.894z M57.911,74.666H41.964v-6.645h15.947V74.666z M57.911,59.815H41.964v-6.645h15.947V59.815z M57.911,33.894H41.964v-6.645   h15.947V33.894z M81.833,74.666H65.885v-6.645h15.948V74.666z M81.833,59.815H65.885v-6.645h15.948V59.815z M81.833,49.854H65.885   V43.21h15.948V49.854z"/></g><rect x="37" y="15.5" width="1.75" height="58.75"/><rect x="12.5" y="15.5" width="1.75" height="58.75"/><rect x="85.25" y="15.5" width="1.75" height="58.75"/><rect x="61" y="15.5" width="1.75" height="58.75"/><rect x="13.312" y="37.5" width="73.25" height="1.75"/><rect x="13.312" y="63.25" width="73.25" height="1.75"/><text x="0" y="115" fill="#000000" font-size="5px" font-weight="bold" font-family="'Helvetica Neue', Helvetica, Arial-Unicode, Arial, Sans-serif">Created by Pablo Rozenberg</text><text x="0" y="120" fill="#000000" font-size="5px" font-weight="bold" font-family="'Helvetica Neue', Helvetica, Arial-Unicode, Arial, Sans-serif">from the Noun Project</text></svg>