<svg width="46" height="46" viewBox="0 0 46 46" fill="none" xmlns="http://www.w3.org/2000/svg" xmlns:xlink="http://www.w3.org/1999/xlink">
<path d="M10.79,-0.5C7.79,-0.5 5.078,1.288 3.896,4.046L0.833,11.192L0.833,29.5C0.833,34.471 4.863,38.5 9.833,38.5L20.904,38.5C20.057,36.676 19.583,34.644 19.583,32.5C19.583,24.63 25.963,18.25 33.833,18.25C35.977,18.25 38.01,18.723 39.833,19.571L39.833,11.192L36.771,4.046C35.589,1.288 32.877,-0.5 29.877,-0.5L10.79,-0.5ZM6.654,5.227C7.363,3.573 8.99,2.5 10.79,2.5L18.833,2.5L18.833,10L4.608,10L6.654,5.227ZM21.833,10L21.833,2.5L29.877,2.5C31.677,2.5 33.304,3.573 34.013,5.227L36.059,10L21.833,10ZM12.083,28.75C12.912,28.75 13.583,29.422 13.583,30.25C13.583,31.078 12.912,31.75 12.083,31.75L8.333,31.75C7.505,31.75 6.833,31.078 6.833,30.25C6.833,29.422 7.505,28.75 8.333,28.75L12.083,28.75Z" clip-rule="evenodd" fill-rule="evenodd" fill="#FF2F48"/>
<path d="M21.833,32.5C21.833,25.873 27.206,20.5 33.833,20.5C40.461,20.5 45.833,25.873 45.833,32.5C45.833,39.127 40.461,44.5 33.833,44.5C27.206,44.5 21.833,39.127 21.833,32.5ZM38.076,36.743C37.49,37.328 36.541,37.328 35.955,36.743L33.833,34.621L31.712,36.743C31.126,37.328 30.177,37.328 29.591,36.743C29.005,36.157 29.005,35.207 29.591,34.621L31.712,32.5L29.591,30.379C29.005,29.793 29.005,28.843 29.591,28.257C30.177,27.672 31.126,27.672 31.712,28.257L33.833,30.379L35.955,28.257C36.541,27.672 37.49,27.672 38.076,28.257C38.662,28.843 38.662,29.793 38.076,30.379L35.955,32.5L38.076,34.621C38.662,35.207 38.662,36.157 38.076,36.743Z" clip-rule="evenodd" fill-rule="evenodd" fill="#FF2F48"/>
</svg>
