<svg width="26" height="26" viewBox="0 0 26 26" fill="none" xmlns="http://www.w3.org/2000/svg">
<g clip-path="url(#clip0_282_591)">
<path fill-rule="evenodd" clip-rule="evenodd" d="M13.5586 14.8989L11.3538 14.3469C11.0683 14.2757 10.7549 14.3751 10.5659 14.6244L8.89565 16.8254L7.22224 14.6204C7.0461 14.3711 6.72852 14.2429 6.4149 14.3229L3.78102 14.9979C1.53137 15.5746 0 17.5461 0 19.865V22.2382C0 22.6589 0.340988 22.9999 0.761719 22.9999H13.6873C13.604 22.7629 13.5586 22.5078 13.5586 22.2422V14.8989Z" fill="#AC12C5"/>
<path fill-rule="evenodd" clip-rule="evenodd" d="M20.885 13.6411L21.3484 13.874V12.0859H19.7434V13.874L20.2022 13.6435C20.4091 13.5384 20.6614 13.5294 20.885 13.6411Z" fill="#AC12C5"/>
<path fill-rule="evenodd" clip-rule="evenodd" d="M25.2383 12.0859H22.8716V15.1056C22.8716 15.5264 22.5306 15.8674 22.1099 15.8674C21.9617 15.8674 21.8232 15.8249 21.7062 15.7515L20.5458 15.1685L19.3209 15.784C18.8109 16.0397 18.2225 15.6575 18.2229 15.1056L18.2198 12.0859H15.8438C15.423 12.0859 15.082 12.4271 15.082 12.8477V22.2422C15.082 22.6629 15.423 23.0039 15.8438 23.0039H25.2383C25.659 23.0039 26 22.6629 26 22.2422V12.8477C26 12.4269 25.659 12.0859 25.2383 12.0859Z" fill="#AC12C5"/>
<path fill-rule="evenodd" clip-rule="evenodd" d="M14.0244 8.07422C14.0244 10.9069 11.7281 13.2031 8.89551 13.2031C6.06287 13.2031 3.7666 10.9069 3.7666 8.07422C3.7666 5.24158 6.06287 2.94531 8.89551 2.94531C11.7281 2.94531 14.0244 5.24158 14.0244 8.07422Z" fill="#AC12C5"/>
</g>
<defs>
<clipPath id="clip0_282_591">
<rect width="26" height="26" fill="white"/>
</clipPath>
</defs>
</svg>
