<svg width="28" height="30" viewBox="0 0 28 30" fill="none" xmlns="http://www.w3.org/2000/svg" xmlns:xlink="http://www.w3.org/1999/xlink">
<path d="M16.68,1.999C14.366,0.194 11.111,0.194 8.797,1.999L1.497,7.693C-0.045,8.896 -0.949,10.738 -0.949,12.692L-0.949,21.827C-0.949,24.856 1.178,27.377 4.012,28.021C3.772,27.855 3.614,27.577 3.614,27.262L3.614,18.084C3.614,16.056 5.248,14.413 7.264,14.413L18.214,14.413C20.229,14.413 21.864,16.056 21.864,18.084L21.864,27.262C21.864,27.577 21.706,27.855 21.465,28.021C24.299,27.377 26.426,24.856 26.426,21.827L26.426,12.692C26.426,10.738 25.522,8.896 23.98,7.693L16.68,1.999ZM8.632,9.824C8.632,9.317 9.041,8.906 9.545,8.906L15.932,8.906C16.436,8.906 16.845,9.317 16.845,9.824C16.845,10.33 16.436,10.741 15.932,10.741L9.545,10.741C9.041,10.741 8.632,10.33 8.632,9.824Z" clip-rule="evenodd" fill-rule="evenodd" fill="#00AC8D"/>
<rect  x="5.439" y="22.214" width="14.6" height="4.13" fill="#00AC8D"/>
<path d="M5.439,20.379L20.039,20.379L20.039,18.085C20.039,17.071 19.222,16.249 18.214,16.249L7.264,16.249C6.256,16.249 5.439,17.071 5.439,18.085L5.439,20.379Z" fill="#00AC8D"/>
</svg>
